<?xml version="1.0" encoding="UTF-8"?>
<svg width="441px" height="162px" viewBox="0 0 441 162" version="1.1" xmlns="http://www.w3.org/2000/svg" xmlns:xlink="http://www.w3.org/1999/xlink">
    <!-- Generator: Sketch 52.6 (67491) - http://www.bohemiancoding.com/sketch -->
    <title>skill-strength-sprite2</title>
    <desc>Created with Sketch.</desc>
    <g id="Page-1" stroke="none" stroke-width="1" fill="none" fill-rule="evenodd">
        <g id="skill-strength-sprite2">
            <path d="M13,71.5 C12.8,69.5 12.6,67.5 12.6,65.5 C12.6,54.8 16,44.9 21.8,36.7 L9.4,28.3 C3.8,37.3 0.5,47.9 0.5,59.2 C0.5,63.8 1.1,68.3 2.1,72.7 L13,71.5 Z" id="Path" fill="#F7BC00"></path>
            <path d="M63,15.7 L63,0.8 C62,0.7 60.5,0.7 59.3,0.7 C39.4,0.7 21.8,10.6 11.2,25.7 L23.9,34.3 C33.1,23 46,15.7 63,15.7 Z" id="Path" fill="#FFCF36"></path>
            <path d="M23.7,97 C18.5,90.6 14.9,83 13.4,74.6 L2.9,75.7 C5.8,85.7 11.4,94.6 18.7,101.6 L23.7,97 Z" id="Path" fill="#F4A300"></path>
            <path d="M42.6,115.3 C47.8,116.8 53.6,117.7 59.4,117.7 C60.5,117.7 62.1,117.7 63.1,117.6 L63.1,115.4 C56.1,115.4 50,114.1 44.3,111.8 L42.6,115.3 Z" id="Path" fill="#ED6000"></path>
            <path d="M25.7,99.3 C30,104 35.2,107.9 41,110.6 L39.6,114.4 C32.7,112 26.4,108.3 21,103.6 L25.7,99.3 Z" id="Path" fill="#EF7D00"></path>
            <path d="M327.6,71.5 C327.4,69.5 327.2,67.5 327.2,65.5 C327.2,54.8 330.6,44.9 336.4,36.7 L324,28.3 C318.4,37.3 315.1,47.9 315.1,59.2 C315.1,63.8 315.7,68.3 316.7,72.7 L327.6,71.5 Z M377.6,15.7 L377.6,0.8 C376.6,0.7 375.1,0.7 373.9,0.7 C354,0.7 336.4,10.6 325.8,25.7 L338.5,34.3 C347.7,23 360.6,15.7 377.6,15.7 Z M338.3,97 C333.1,90.6 329.5,83 328,74.6 L317.5,75.7 C320.4,85.7 326,94.6 333.3,101.6 L338.3,97 Z M357.2,115.3 C362.4,116.8 368.2,117.7 374,117.7 C375.1,117.7 376.7,117.7 377.7,117.6 L377.7,115.4 C370.7,115.4 364.6,114.1 358.9,111.8 L357.2,115.3 Z M340.3,99.3 C344.6,104 349.8,107.9 355.6,110.6 L354.2,114.4 C347.3,112 341,108.3 335.6,103.6 L340.3,99.3 Z" id="Shape" fill="#000000" fill-rule="nonzero" opacity="0.12"></path>
            <path d="M390.1,71.5 C389.9,69.5 389.7,67.5 389.7,65.5 C389.7,54.8 393.1,44.9 398.9,36.7 L386.5,28.3 C380.9,37.3 377.6,47.9 377.6,59.2 C377.6,63.8 378.2,68.3 379.2,72.7 L390.1,71.5 Z M440.1,15.7 L440.1,0.8 C439.1,0.7 437.6,0.7 436.4,0.7 C416.5,0.7 398.9,10.6 388.3,25.7 L401,34.3 C410.2,23 423.1,15.7 440.1,15.7 Z M400.8,97 C395.6,90.6 392,83 390.5,74.6 L380,75.7 C382.9,85.7 388.5,94.6 395.8,101.6 L400.8,97 Z M419.7,115.3 C424.9,116.8 430.7,117.7 436.5,117.7 C437.6,117.7 439.2,117.7 440.2,117.6 L440.2,115.4 C433.2,115.4 427.1,114.1 421.4,111.8 L419.7,115.3 Z M402.8,99.3 C407.1,104 412.3,107.9 418.1,110.6 L416.7,114.4 C409.8,112 403.5,108.3 398.1,103.6 L402.8,99.3 Z" id="Shape" fill="#D87000" fill-rule="nonzero"></path>
            <path d="M76,71.5 C75.8,69.5 75.6,67.5 75.6,65.5 C75.6,54.8 79,44.9 84.8,36.7 L72.5,28.2 C66.9,37.2 63.6,47.8 63.6,59.1 C63.6,63.7 64.2,68.2 65.2,72.6 L76,71.5 Z" id="Path" fill="#F7BC00"></path>
            <path d="M126,15.7 L126,0.8 C125,0.7 123.5,0.7 122.3,0.7 C102.4,0.7 84.8,10.6 74.2,25.7 L86.9,34.3 C96.1,23 109,15.7 126,15.7 Z" id="Path" fill="#000000" opacity="0.12"></path>
            <path d="M86.7,97 C81.5,90.6 77.9,83 76.4,74.6 L65.9,75.7 C68.8,85.7 74.4,94.6 81.7,101.6 L86.7,97 Z" id="Path" fill="#F4A300"></path>
            <path d="M105.6,115.3 C110.8,116.8 116.6,117.7 122.4,117.7 C123.5,117.7 125.1,117.7 126.1,117.6 L126.1,115.4 C119.1,115.4 113,114.1 107.3,111.8 L105.6,115.3 Z" id="Path" fill="#ED6000"></path>
            <path d="M88.7,99.3 C93,104 98.2,107.9 104,110.6 L102.6,114.4 C95.7,112 89.4,108.3 84,103.6 L88.7,99.3 Z" id="Path" fill="#EF7D00"></path>
            <path d="M139,71.5 C138.8,69.5 138.6,67.5 138.6,65.5 C138.6,54.8 142,44.9 147.8,36.7 L135.5,28.2 C129.9,37.2 126.6,47.8 126.6,59.1 C126.6,63.7 127.2,68.2 128.2,72.6 L139,71.5 Z M189,15.7 L189,0.8 C188,0.7 186.5,0.7 185.3,0.7 C165.4,0.7 147.8,10.6 137.2,25.7 L149.9,34.3 C159.1,23 172,15.7 189,15.7 Z" id="Shape" fill="#000000" fill-rule="nonzero" opacity="0.12"></path>
            <path d="M149.7,97 C144.5,90.6 140.9,83 139.4,74.6 L128.9,75.7 C131.8,85.7 137.4,94.6 144.7,101.6 L149.7,97 Z" id="Path" fill="#F4A300"></path>
            <path d="M168.6,115.3 C173.8,116.8 179.6,117.7 185.4,117.7 C186.5,117.7 188.1,117.7 189.1,117.6 L189.1,115.4 C182.1,115.4 176,114.1 170.3,111.8 L168.6,115.3 Z" id="Path" fill="#ED6000"></path>
            <path d="M151.7,99.3 C156,104 161.2,107.9 167,110.6 L165.6,114.4 C158.7,112 152.4,108.3 147,103.6 L151.7,99.3 Z" id="Path" fill="#EF7D00"></path>
            <path d="M202,71.5 C201.8,69.5 201.6,67.5 201.6,65.5 C201.6,54.8 205,44.9 210.8,36.7 L198.5,28.2 C192.9,37.2 189.6,47.8 189.6,59.1 C189.6,63.7 190.2,68.2 191.2,72.6 L202,71.5 Z M252,15.7 L252,0.8 C251,0.7 249.5,0.7 248.3,0.7 C228.4,0.7 210.8,10.6 200.2,25.7 L212.9,34.3 C222.1,23 235,15.7 252,15.7 Z M212.7,97 C207.5,90.6 203.9,83 202.4,74.6 L191.9,75.7 C194.8,85.7 200.4,94.6 207.7,101.6 L212.7,97 Z" id="Shape" fill="#000000" fill-rule="nonzero" opacity="0.12"></path>
            <path d="M231.6,115.3 C236.8,116.8 242.6,117.7 248.4,117.7 C249.5,117.7 251.1,117.7 252.1,117.6 L252.1,115.4 C245.1,115.4 239,114.1 233.3,111.8 L231.6,115.3 Z" id="Path" fill="#ED6000"></path>
            <path d="M214.7,99.3 C219,104 224.2,107.9 230,110.6 L228.6,114.4 C221.7,112 215.4,108.3 210,103.6 L214.7,99.3 Z" id="Path" fill="#EF7D00"></path>
            <path d="M265,71.5 C264.8,69.5 264.6,67.5 264.6,65.5 C264.6,54.8 268,44.9 273.8,36.7 L261.5,28.2 C255.9,37.2 252.6,47.8 252.6,59.1 C252.6,63.7 253.2,68.2 254.2,72.6 L265,71.5 Z M315,15.7 L315,0.8 C314,0.7 312.5,0.7 311.3,0.7 C291.4,0.7 273.8,10.6 263.2,25.7 L275.9,34.3 C285.1,23 298,15.7 315,15.7 Z M275.7,97 C270.5,90.6 266.9,83 265.4,74.6 L254.9,75.7 C257.8,85.7 263.4,94.6 270.7,101.6 L275.7,97 Z" id="Shape" fill="#000000" fill-rule="nonzero" opacity="0.12"></path>
            <path d="M294.6,115.3 C299.8,116.8 305.6,117.7 311.4,117.7 C312.5,117.7 314.1,117.7 315.1,117.6 L315.1,115.4 C308.1,115.4 302,114.1 296.3,111.8 L294.6,115.3 Z" id="Path" fill="#ED6000"></path>
            <path d="M277.7,99.3 C282,104 287.2,107.9 293,110.6 L291.6,114.4 C284.7,112 278.4,108.3 273,103.6 L277.7,99.3 Z" id="Path" fill="#000000" opacity="0.12"></path>
            <g id="Group" transform="translate(0.000000, 144.000000)">
                <path d="M18,18 L33,18 L33,6.5 L18,9.2 L18,18 Z M51,3.2 L36,6.1 L36,18 L51,18 L51,3.2 Z" id="Shape" fill="#000000" fill-rule="nonzero" opacity="0.12"></path>
                <polygon id="Path" fill="#ED6000" points="16 9.6 0 12.5 0 18 16 18"></polygon>
                <polygon id="Path" fill="#000000" opacity="0.12" points="53 2.9 53 18 70 18 70 0"></polygon>
            </g>
            <g id="Group" transform="translate(289.000000, 144.000000)">
                <path d="M18,18 L33,18 L33,6.5 L18,9.2 L18,18 Z M51,3.2 L36,6.1 L36,18 L51,18 L51,3.2 Z" id="Shape" fill="#000000" fill-rule="nonzero" opacity="0.12"></path>
                <polygon id="Path" fill="#E0E0E0" points="16 9.6 0 12.5 0 18 16 18"></polygon>
                <polygon id="Path" fill="#000000" opacity="0.12" points="53 2.9 53 18 70 18 70 0"></polygon>
            </g>
            <g id="Group" transform="translate(72.000000, 144.000000)">
                <polygon id="Path" fill="#EF7D00" points="18 18 33 18 33 6.5 18 9.2"></polygon>
                <polygon id="Path" fill="#000000" opacity="0.12" points="52 3.2 35 6.1 35 18 52 18"></polygon>
                <polygon id="Path" fill="#ED6000" points="16 9.6 0 12.5 0 18 16 18"></polygon>
                <polygon id="Path" fill="#000000" opacity="0.12" points="54 2.9 54 18 69 18 69 0"></polygon>
            </g>
            <g id="Group" transform="translate(144.000000, 144.000000)">
                <polygon id="Path" fill="#EF7D00" points="18 18 34 18 34 6.5 18 9.2"></polygon>
                <polygon id="Path" fill="#F4A300" points="51 3.2 36 6.1 36 18 51 18"></polygon>
                <polygon id="Path" fill="#ED6000" points="16 9.6 0 12.5 0 18 16 18"></polygon>
                <polygon id="Path" fill="#000000" opacity="0.12" points="54 2.9 54 18 70 18 70 0"></polygon>
            </g>
            <g id="Group" transform="translate(216.000000, 144.000000)">
                <polygon id="Path" fill="#EF7D00" points="19 18 34 18 34 6.5 19 9.2"></polygon>
                <polygon id="Path" fill="#F4A300" points="52 3.2 36 6.1 36 18 52 18"></polygon>
                <polygon id="Path" fill="#ED6000" points="17 9.6 0 12.5 0 18 17 18"></polygon>
                <polygon id="Path" fill="#FFCF36" points="54 2.9 54 18 70 18 70 0"></polygon>
            </g>
        </g>
    </g>
</svg>